<?xml version="1.0" encoding="UTF-8" standalone="no"?>
<!-- Created with Inkscape (http://www.inkscape.org/) -->

<svg
   xmlns:dc="http://purl.org/dc/elements/1.1/"
   xmlns:cc="http://creativecommons.org/ns#"
   xmlns:rdf="http://www.w3.org/1999/02/22-rdf-syntax-ns#"
   xmlns:svg="http://www.w3.org/2000/svg"
   xmlns="http://www.w3.org/2000/svg"
   version="1.1"
   width="1240.1575"
   height="1062.9926"
   id="svg2985"
   xml:space="preserve"><metadata
     id="metadata2991"><rdf:RDF><cc:Work
         rdf:about=""><dc:format>image/svg+xml</dc:format><dc:type
           rdf:resource="http://purl.org/dc/dcmitype/StillImage" /><dc:title></dc:title></cc:Work></rdf:RDF></metadata><defs
     id="defs2989" /><g
     transform="matrix(1.25,0,0,-1.25,0,1062.9925)"
     id="g2993"><g
       transform="translate(471.6987,45.2002)"
       id="g2995"><path
         d="m 0,0 2.9,0.1 2.9,0.4 2.9,0.5 2.9,0.7 2.799,0.9 2.701,1 2.6,1.299 2.6,1.5 2.4,1.601 2.3,1.8 2.2,1.9 2.099,2.1 1.901,2.3 1.8,2.299 1.5,2.5 1.399,2.601 1.301,2.6 1,2.799 0.9,2.801 0.6,2.8 0.5,2.899 0.199,3 L 42.5,43.3 42.299,46.2 42,49.1 41.399,52 40.7,54.899 39.7,57.6 38.6,60.399 37.299,63 l -1.5,2.5 -1.699,2.399 -1.801,2.301 -2,2.199 -2.099,2 L 25.899,76.3 23.5,78 21,79.5 18.399,80.899 15.7,82.1 13,83.1 10.1,83.899 7.3,84.5 4.4,84.899 1.4,85.1 -1.5,85.1 -4.4,84.899 -7.3,84.5 -10.2,83.899 -13,83.1 l -2.8,-1 -2.7,-1.201 -2.6,-1.399 -2.5,-1.5 -2.4,-1.7 -2.2,-1.901 -2.2,-2 L -32.3,70.2 -34.2,67.899 -35.8,65.5 -37.3,63 -38.7,60.399 -39.8,57.6 -40.7,54.899 -41.5,52 -42,49.1 l -0.4,-2.9 -0.1,-2.9 0,-2.901 0.3,-3 0.4,-2.899 0.7,-2.8 0.8,-2.801 1.1,-2.799 1.2,-2.6 1.4,-2.601 1.6,-2.5 1.7,-2.299 1.9,-2.3 2.1,-2.1 2.2,-1.9 2.3,-1.8 2.5,-1.601 2.5,-1.5 2.6,-1.299 2.8,-1 2.8,-0.9 L -8.8,1 -5.9,0.5 -3,0.1 0,0 m -42.599,2.535 1,0.1 0.8,0.4 0.9,0.5 0.6,0.6 0.5,0.8 0.4,0.9 0.1,1 -0.1,0.899 -0.4,0.901 -0.5,0.8 -0.6,0.7 -0.9,0.5 -0.8,0.3 -1,0.1 -0.9,-0.1 -0.9,-0.3 -0.8,-0.5 -0.7,-0.7 -0.5,-0.8 -0.3,-0.901 -0.1,-0.899 0.1,-1 0.3,-0.9 0.5,-0.8 0.7,-0.6 0.8,-0.5 0.9,-0.4 0.9,-0.1 m 85,0 1,0.1 0.9,0.4 0.799,0.5 0.701,0.6 0.5,0.8 0.299,0.9 0.102,1 -0.102,0.899 -0.299,0.901 -0.5,0.8 -0.701,0.7 -0.799,0.5 -0.9,0.3 -1,0.1 -0.901,-0.1 -0.9,-0.3 -0.799,-0.5 -0.701,-0.7 -0.5,-0.8 -0.299,-0.901 -0.099,-0.899 0.099,-1 0.299,-0.9 0.5,-0.8 0.701,-0.6 0.799,-0.5 0.9,-0.4 0.901,-0.1 m -85,70.9 1,0.1 0.8,0.3 0.9,0.5 0.6,0.7 0.5,0.8 0.4,0.899 0.1,1 -0.1,0.901 -0.4,0.9 -0.5,0.8 -0.6,0.7 -0.9,0.5 -0.8,0.3 -1,0.1 -0.9,-0.1 -0.9,-0.3 -0.8,-0.5 -0.7,-0.7 -0.5,-0.8 -0.3,-0.9 -0.1,-0.901 0.1,-1 0.3,-0.899 0.5,-0.8 0.7,-0.7 0.8,-0.5 0.9,-0.3 0.9,-0.1 m 85,0 1,0.1 0.9,0.3 0.799,0.5 0.701,0.7 0.5,0.8 0.299,0.899 0.102,1 -0.102,0.901 -0.299,0.9 -0.5,0.8 -0.701,0.7 -0.799,0.5 -0.9,0.3 -1,0.1 -0.901,-0.1 -0.9,-0.3 -0.799,-0.5 -0.701,-0.7 -0.5,-0.8 -0.299,-0.9 -0.099,-0.901 0.099,-1 0.299,-0.899 0.5,-0.8 0.701,-0.7 0.799,-0.5 0.9,-0.3 0.901,-0.1 m -172,-80.435 9.1,0 m -9.1,14.1 0,-14.1 m 9.1,14.1 -9.1,0 m 9.1,28.4 0,-28.4 m -9.1,28.4 9.1,0 m -9.1,14.2 0,-14.2 m 9.1,14.2 -9.1,0 m 9.1,28.3 0,-28.3 m -9.1,28.3 9.1,0 m -9.1,14.2 0,-14.2 m 9.1,14.2 -9.1,0 m 9.1,19.8 0,-19.8 m 240.9,19.8 -240.9,0 m 240.9,-19.8 0,19.8 m 9.1,-19.8 -9.1,0 m 9.1,-14.2 0,14.2 m -9.1,-14.2 9.1,0 m -9.1,-28.3 0,28.3 m 9.1,-28.3 -9.1,0 m 9.1,-14.2 0,14.2 m -9.1,-14.2 9.1,0 m -9.1,-28.4 0,28.4 m 9.1,-28.4 -9.1,0 m 9.1,-14.1 0,14.1 m -9.1,-14.1 9.1,0 m -9.1,-19.9 0,19.9 m -240.9,-19.9 240.9,0 m -240.9,19.9 0,-19.9"
         id="path2997"
         style="fill:none;stroke:#0000ff;stroke-width:0.01;stroke-linecap:round;stroke-linejoin:round;stroke-miterlimit:10;stroke-opacity:1;stroke-dasharray:none" /></g><g
       transform="translate(383.2002,219.2998)"
       id="g2999"><path
         d="m 0,0 14.2,0 m 0,0 0,9.101 m 0,0 -14.2,0 m 0,0 L 0,0 m 99.2,9.101 -14.2,0 m 0,0 L 85,0 m 0,0 14.2,0 m 0,0 0,9.101 m 42.5,0 -14.2,0 m 0,0 0,-9.101 m 0,0 14.2,0 m 0,0 0,9.101 M -37.4,-17.1 l 9,0 m -9,14.201 0,-14.201 m 9,14.201 -9,0 m 9,32.599 0,-32.599 m 14.2,32.599 -14.2,0 m 14.2,-3.5 0,3.5 m 6.5,-3.5 -6.5,0 m 6.5,3.5 0,-3.5 m 7.1,3.5 -7.1,0 m 7.1,8.5 0,-8.5 m -7.1,8.5 7.1,0 m -7.1,3.6 0,-3.6 m -6.5,3.6 6.5,0 m -6.5,-3.6 0,3.6 m -14.2,-3.6 14.2,0 m -14.2,32.6 0,-32.6 m -9,32.6 9,0 m -9,14.2 0,-14.2 m 9,14.2 -9,0 m 9,28.3 0,-28.3 m 241,28.3 -241,0 m 241,-28.3 0,28.3 m 9,-28.3 -9,0 m 9,-14.2 0,14.2 m -9,-14.2 9,0 m -9,-32.6 0,32.6 m -14.201,-32.6 14.201,0 m -14.201,3.6 0,-3.6 m -6.5,3.6 6.5,0 m -6.5,-3.6 0,3.6 m -7.099,-3.6 7.099,0 m -7.099,-8.5 0,8.5 m 7.099,-8.5 -7.099,0 m 7.099,-3.5 0,3.5 m 6.5,-3.5 -6.5,0 m 6.5,3.5 0,-3.5 m 14.201,3.5 -14.201,0 m 14.201,-32.599 0,32.599 m 9,-32.599 -9,0 m 9,-14.201 0,14.201 m -9,-14.201 9,0 m -9,-28.299 0,28.299 m -241,-28.299 241,0 m -241,28.299 0,-28.299 m 212.6,54.5 -14.1,0 m 0,0 0,-9.101 m 0,0 14.1,0 m 0,0 0,9.101 M 42.5,0 56.7,0 m 0,0 0,9.101 m 0,0 -14.2,0 m 0,0 0,-9.101"
         id="path3001"
         style="fill:none;stroke:#0000ff;stroke-width:0.01;stroke-linecap:round;stroke-linejoin:round;stroke-miterlimit:10;stroke-opacity:1;stroke-dasharray:none" /></g><g
       transform="translate(606.5996,665.3999)"
       id="g3003"><path
         d="m 0,0 0,56.7 m 0,0 -9.1,0 m 0,0 0,-56.7 m 0,0 9.1,0 m 0,-201 0,56.7 m 0,0 -9.1,0 m 0,0 0,-56.7 m 0,0 9.1,0 m -0.3,130.2 -0.2,1.3 -0.6,1.2 -1,0.9 -1.2,0.6 -1.3,0.2 -1.299,-0.2 -1.201,-0.6 -0.9,-0.9 -0.6,-1.2 -0.2,-1.3 0.2,-1.4 0.6,-1.1 0.9,-1 1.201,-0.6 1.299,-0.2 1.3,0.2 1.2,0.6 1,1 0.6,1.1 0.2,1.4 m -185.599,-172.7 0,9 m 0,0 -56.701,0 m 0,0 0,-9 m 0,0 56.701,0 m -99.201,37.6 0,14.1 m 0,0 -9.1,0 m 0,0 0,-14.1 m 0,0 9.1,0 m 0,-43.3 0,14.2 m 0,0 -9.1,0 m 0,0 0,-14.2 m 0,0 9.1,0 m 8,74.1 12.8,6.1 m 0,0 -3.9,8.2 m 0,0 -12.8,-6.1 m 0,0 3.9,-8.2 m 120.4,90.4 3.4,13.7 m 0,0 -8.8,2.2 m 0,0 -3.4,-13.7 m 0,0 8.8,-2.2 m -82.1,-72.1 12.8,6.2 m 0,0 -3.899,8.1 m 0,0 -12.801,-6.1 m 0,0 3.9,-8.2 m 38.401,18.4 12.799,6.1 m 0,0 -3.9,8.2 m 0,0 -12.8,-6.1 m 0,0 3.901,-8.2 m 53.899,95 3.4,13.7 m 0,0 -8.799,2.2 m 0,0 -3.401,-13.8 m 0,0 8.8,-2.1 m 10.2,41.2 3.401,13.8 m 0,0 -8.801,2.2 m 0,0 -3.4,-13.8 m 0,0 8.8,-2.2 m 10.2,41.3 3.4,13.8 m 0,0 -8.8,2.2 m 0,0 -3.399,-13.8 m 0,0 8.799,-2.2 m 74.3,-282.6 0,9 m 0,0 -56.7,0 m 0,0 0,-9 m 0,0 56.7,0 m -91.099,4.5 -0.201,1.3 -0.6,1.2 -0.9,1 -1.2,0.6 -1.3,0.2 -1.299,-0.2 -1.201,-0.6 -1,-1 -0.6,-1.2 -0.199,-1.3 0.199,-1.3 0.6,-1.2 1,-0.9 1.201,-0.6 1.299,-0.2 1.3,0.2 1.2,0.6 0.9,0.9 0.6,1.2 0.201,1.3 m 27,319.4 3.399,13.8 m 0,0 -8.8,2.1 m 0,0 -3.4,-13.7 m 0,0 8.801,-2.2 m 2.699,60.9 2.2,8.8 m 0,0 -13.8,3.4 m 0,0 -2.2,-8.8 m 0,0 13.8,-3.4 m 85.301,-21 2.2,8.8 m 0,0 -13.801,3.4 m 0,0 -2.1,-8.8 m 0,0 13.701,-3.4 m -44.201,16.6 -0.2,1.3 -0.599,1.2 -0.901,1 -1.2,0.6 -1.3,0.2 -1.3,-0.2 -1.2,-0.6 -1,-1 -0.599,-1.2 -0.201,-1.3 0.201,-1.3 0.599,-1.2 1,-0.9 1.2,-0.6 1.3,-0.2 1.3,0.2 1.2,0.6 0.901,0.9 0.599,1.2 0.2,1.3 m 63,-408.8 11.901,0 m -22.601,-7.4 0.8,1.5 0.9,1.5 1.201,1.3 1.299,1.1 1.5,0.9 1.6,0.6 1.7,0.4 1.7,0.1 m -20.7,-35 10,27.6 m -20.7,-35.1 1.801,0.1 1.599,0.4 1.701,0.7 1.399,0.9 1.4,1.1 1.1,1.2 1,1.5 0.7,1.6 m -37.3,-7.5 26.6,0 m -37.3,7.5 0.8,-1.6 0.9,-1.5 1.201,-1.2 1.299,-1.1 1.5,-0.9 1.6,-0.7 1.7,-0.4 1.7,-0.1 m -20.7,35.1 10,-27.6 m -20.7,35 1.801,-0.1 1.699,-0.4 1.601,-0.6 1.399,-0.9 1.4,-1.1 1.1,-1.3 1,-1.5 0.7,-1.5 m -108,7.4 97.3,0 m -108,-7.4 0.8,1.5 0.9,1.5 1.2,1.3 1.3,1.1 1.5,0.9 1.6,0.6 1.7,0.4 1.7,0.1 m -20.7,-35 10,27.6 m -20.7,-35.1 1.801,0.1 1.699,0.4 1.6,0.7 1.4,0.9 1.4,1.1 1.1,1.2 1,1.5 0.7,1.6 m -37.3,-7.5 26.6,0 m -37.3,7.5 0.8,-1.6 0.9,-1.5 1.2,-1.2 1.3,-1.1 1.5,-0.9 1.6,-0.7 1.7,-0.4 1.7,-0.1 m -20.7,35.1 10,-27.6 m -20.7,35 1.801,-0.1 1.699,-0.4 1.6,-0.6 1.5,-0.9 1.3,-1.1 1.1,-1.3 1,-1.5 0.7,-1.5 m -22.6,7.4 11.9,0 m -23.199,11.4 0.199,-2.2 0.7,-2.2 1,-1.9 1.4,-1.8 1.701,-1.4 2,-1 2.099,-0.7 2.2,-0.2 m -11.299,100.1 0,-88.7 m 6.5,98.9 -1.401,-0.8 -1.3,-0.9 -1.1,-1.2 -0.9,-1.2 -0.799,-1.5 -0.5,-1.4 -0.401,-1.6 -0.099,-1.6 m 117.699,63.4 -111.199,-53.2 m 117.299,60.7 -0.4,-1.2 -0.5,-1.1 -0.6,-1.1 -0.7,-1 -0.8,-1 -1,-0.8 -1,-0.7 -1.1,-0.6 m 60.4,227.7 -54.3,-220.2 m 46.1,233.9 2,-0.7 2,-1.2 1.601,-1.5 1.299,-1.7 1,-2.1 0.5,-2.1 0.201,-2.2 -0.401,-2.2 m -30.3,19.1 22.1,-5.4 m -30.399,19.2 -0.301,-2.2 0.1,-2.3 0.5,-2.1 1,-2 1.3,-1.8 1.7,-1.5 1.9,-1.1 2.1,-0.8 m -4.799,28.1 -3.5,-14.3 m 17.199,22.6 -2.199,0.3 -2.201,-0.1 -2.1,-0.6 -2,-0.9 -1.8,-1.4 -1.5,-1.6 -1.1,-1.9 -0.799,-2.1 M 5.5,136 -151.7,174.8 M 14.101,125 14,126.9 13.5,128.7 12.801,130.4 11.7,132 10.4,133.3 9,134.5 7.301,135.4 5.5,136 m 8.601,-396.5 0,385.5 m -11.3,-396.9 2.199,0.2 2.101,0.7 2,1 1.7,1.4 1.399,1.8 1.101,1.9 0.599,2.2 0.201,2.2"
         id="path3005"
         style="fill:none;stroke:#0000ff;stroke-width:0.01;stroke-linecap:round;stroke-linejoin:round;stroke-miterlimit:10;stroke-opacity:1;stroke-dasharray:none" /></g><g
       transform="translate(664.0996,723)"
       id="g3007"><path
         d="M 0,0 9.101,0 M 0,-56.7 0,0 M 9.101,-56.7 0,-56.7 M 9.101,0 l 0,-56.7 M 0,-201.1 l 9.101,0 M 0,-257.8 l 0,56.7 m 9.101,-56.7 -9.101,0 m 9.101,56.7 0,-56.7 m -0.3,130.2 -0.2,-1.3 L 8,-130.1 7.101,-131 5.9,-131.6 l -1.299,-0.2 -1.3,0.2 -1.2,0.6 -1,0.9 -0.601,1.2 -0.199,1.3 0.199,1.3 0.601,1.2 1,1 1.2,0.6 1.3,0.2 1.299,-0.2 1.201,-0.6 0.899,-1 0.601,-1.2 0.2,-1.3 m 177.099,-163.6 56.701,0 m -56.701,-9.1 0,9.1 m 56.701,-9.1 -56.701,0 m 56.701,9.1 0,-9.1 m 42.5,51.8 9.099,0 m -9.099,-14.2 0,14.2 m 9.099,-14.2 -9.099,0 m 9.099,14.2 0,-14.2 m -9.099,-29.1 9.099,0 m -9.099,-14.1 0,14.1 m 9.099,-14.1 -9.099,0 m 9.099,14.1 0,-14.1 m -29.899,80.2 3.899,8.2 m 8.901,-14.3 -12.8,6.1 m 16.699,2 -3.899,-8.1 m -8.901,14.3 12.8,-6.2 m -127.699,96 8.8,2.2 m -5.5,-16 -3.3,13.8 m 12.199,-11.6 -8.899,-2.2 m 5.5,16 3.399,-13.8 m 60.5,-68.1 3.9,8.2 m 8.901,-14.3 -12.801,6.1 m 16.7,2.1 -3.899,-8.2 m -8.901,14.3 12.8,-6.1 m -55.099,16.2 3.899,8.2 m 8.9,-14.3 -12.799,6.1 m 16.7,2.1 -3.901,-8.2 m -8.9,14.3 12.801,-6.1 m -61.2,100.6 8.799,2.1 m -5.4,-15.9 -3.399,13.8 m 12.2,-11.6 -8.801,-2.2 m 5.4,15.9 3.401,-13.7 m -22.401,52.9 8.8,2.1 m -5.399,-15.9 -3.401,13.8 m 12.201,-11.6 -8.8,-2.2 m 5.399,15.9 3.401,-13.7 m -22.401,52.8 8.8,2.2 m -5.399,-15.9 -3.401,13.7 m 8.8,2.2 3.4,-13.8 m -83.099,-275.7 56.599,0 m -56.599,-9.1 0,9.1 m 56.599,-9.1 -56.599,0 m 56.599,9.1 0,-9.1 m 43,4.6 -0.2,-1.4 -0.599,-1.1 -1,-1 -1.201,-0.6 -1.299,-0.2 -1.3,0.2 -1.2,0.6 -0.901,1 -0.599,1.1 -0.201,1.4 0.201,1.3 0.599,1.2 0.901,0.9 1.2,0.6 1.3,0.2 1.299,-0.2 1.201,-0.6 1,-0.9 0.599,-1.2 0.2,-1.3 m -38.9,333.1 8.801,2.2 M 115.9,23.7 112.5,37.4 m 12.2,-11.6 -8.8,-2.1 m 5.401,15.9 3.399,-13.8 M 111,93.4 124.801,96.8 M 113.2,84.6 111,93.4 M 126.9,88 113.2,84.6 M 124.801,96.8 126.9,88 M 25.7,72.3 39.5,75.7 M 27.9,63.5 25.7,72.3 M 41.601,66.9 27.9,63.5 m 11.6,12.2 2.101,-8.8 m 39,13.3 -0.201,-1.4 -0.599,-1.1 -1,-1 -1.2,-0.6 -1.3,-0.2 -1.301,0.2 -1.199,0.6 -0.901,1 -0.599,1.1 -0.2,1.4 0.2,1.3 0.599,1.2 0.901,0.9 1.199,0.6 1.301,0.2 1.3,-0.2 1.2,-0.6 1,-0.9 0.599,-1.2 0.201,-1.3 m 54.299,-95.7 -8.799,-2.1 m -117,-311 -11.901,0 m 22.601,-7.5 -0.801,1.6 -0.899,1.4 -1.201,1.3 -1.299,1.1 -1.5,0.9 -1.601,0.7 -1.699,0.3 -1.7,0.2 m 20.7,-35.1 -10,27.6 m 20.699,-35 -1.8,0.1 -1.7,0.4 -1.6,0.6 -1.4,0.9 -1.399,1.1 -1.101,1.3 -1,1.4 -0.699,1.6 m 37.3,-7.4 -26.601,0 m 37.301,7.4 -0.801,-1.6 -0.899,-1.4 -1.201,-1.3 -1.299,-1.1 -1.5,-0.9 -1.601,-0.6 -1.699,-0.4 -1.7,-0.1 m 20.7,35 -10,-27.6 m 20.599,35.1 -1.7,-0.2 -1.7,-0.3 -1.6,-0.7 -1.5,-0.9 -1.299,-1.1 -1.101,-1.3 -1,-1.4 -0.699,-1.6 m 108,7.5 -97.401,0 m 108,-7.5 -0.7,1.6 -0.899,1.4 -1.2,1.3 -1.3,1.1 -1.5,0.9 -1.601,0.7 -1.7,0.3 -1.699,0.2 m 20.699,-35.1 -10.1,27.6 m 20.701,-35 -1.701,0.1 -1.7,0.4 -1.599,0.6 -1.5,0.9 -1.3,1.1 -1.101,1.3 -1,1.4 -0.7,1.6 m 37.301,-7.4 -26.7,0 m 37.299,7.4 -0.7,-1.6 -0.899,-1.4 -1.2,-1.3 -1.3,-1.1 -1.5,-0.9 -1.601,-0.6 -1.7,-0.4 -1.699,-0.1 m 20.699,35 -10.1,-27.6 m 20.701,35.1 -1.701,-0.2 -1.7,-0.3 -1.599,-0.7 -1.5,-0.9 -1.3,-1.1 -1.2,-1.3 -0.901,-1.4 -0.7,-1.6 m 22.5,7.5 -11.899,0 m 23.299,11.3 -0.2,-2.2 -0.7,-2.1 -1,-2 -1.399,-1.7 -1.8,-1.4 -1.901,-1.1 -2.099,-0.6 -2.301,-0.2 m 11.4,100.1 0,-88.8 m -6.5,99 1.401,-0.8 1.3,-1 1.099,-1.1 0.901,-1.3 0.799,-1.4 0.5,-1.5 0.401,-1.6 0.099,-1.5 m -117.7,63.3 111.2,-53.1 m -117.299,60.7 0.299,-1.2 0.5,-1.2 0.701,-1.1 0.7,-1 0.8,-0.9 1,-0.8 1,-0.8 1.099,-0.6 M 130.2,62.5 184.601,-157.6 M 138.5,76.2 l -2.1,-0.7 -1.9,-1.1 -1.6,-1.5 -1.299,-1.8 -1,-2 -0.601,-2.2 -0.1,-2.2 0.3,-2.2 M 160.601,81.7 138.5,76.2 m 30.4,19.2 0.3,-2.2 -0.099,-2.2 -0.5,-2.2 -1,-2 -1.3,-1.7 -1.7,-1.5 -1.901,-1.2 -2.099,-0.7 m 4.799,28 3.5,-14.3 m -17.299,22.6 2.2,0.3 2.3,-0.1 2.099,-0.5 2,-1 1.8,-1.3 1.5,-1.7 1.101,-1.9 0.799,-2.1 M -5.5,79.2 151.601,118 M -14.1,68.2 l 0.1,1.9 0.5,1.8 0.7,1.7 1.101,1.6 1.199,1.4 1.5,1.1 1.7,0.9 1.8,0.6 m -8.6,-396.5 0,385.5 m 11.3,-396.8 -2.2,0.2 -2.1,0.6 -2,1.1 -1.7,1.4 -1.399,1.7 -1.101,2 -0.599,2.1 -0.201,2.2"
         id="path3009"
         style="fill:none;stroke:#0000ff;stroke-width:0.01;stroke-linecap:round;stroke-linejoin:round;stroke-miterlimit:10;stroke-opacity:1;stroke-dasharray:none" /></g><g
       transform="translate(81.2998,368.5996)"
       id="g3011"><path
         d="m 0,0 42.6,0 m 0,0 0,9.101 m 0,0 -42.6,0 m 0,0 L 0,0 m 90.7,0 42.6,0 m 0,0 0,9.101 m 0,0 -42.6,0 m 0,0 0,-9.101 m -144.5,-14.199 240.9,0 m -240.9,8.5 0,-8.5 m -9.1,8.5 9.1,0 m -9.1,14.199 0,-14.199 m 9.1,14.199 -9.1,0 m 9.1,29.101 0,-29.101 m -9.1,29.101 9.1,0 m -9.1,14.2 0,-14.2 m 9.1,14.2 -9.1,0 m 9.1,8.499 0,-8.499 m 240.9,8.499 -240.9,0 m 240.9,-8.499 0,8.499 m 9.1,-8.499 -9.1,0 m 9.1,-14.2 0,14.2 m -9.1,-14.2 9.1,0 M 187.1,8.5 l 0,29.101 m 9.1,-29.101 -9.1,0 m 9.1,-14.199 0,14.199 m -9.1,-14.199 9.1,0 m -9.1,-8.5 0,8.5"
         id="path3013"
         style="fill:none;stroke:#0000ff;stroke-width:0.01;stroke-linecap:round;stroke-linejoin:round;stroke-miterlimit:10;stroke-opacity:1;stroke-dasharray:none" /></g><g
       transform="translate(243.6001,103.5996)"
       id="g3015"><path
         d="M 0,0 1.1,0.101 2.2,0.5 3.2,1 4,1.7 4.7,2.5 5.3,3.5 5.6,4.601 5.7,5.7 m 0,0 0,138.901 m 0,0 -0.1,1.099 -0.3,1.101 -0.6,0.899 -0.7,0.901 -0.8,0.7 -1,0.5 -1.1,0.399 -1.1,0.101 m 0,0 -196.1,0 m 0,0 -1.1,-0.101 -1.1,-0.399 -1,-0.5 -0.8,-0.7 -0.7,-0.901 -0.6,-0.899 -0.3,-1.101 -0.1,-1.099 m 0,0 0,-138.901 m 0,0 0.1,-1.099 0.3,-1.101 0.6,-1 0.7,-0.8 0.8,-0.7 1,-0.5 1.1,-0.399 1.1,-0.101 m 0,0 L 0,0 m 5.4,174.101 -0.1,1 -0.4,1 -0.6,0.899 -0.9,0.7 -0.9,0.401 -1.1,0.2 -1,0 -1,-0.401 -0.9,-0.5 -0.8,-0.799 -0.5,-1 -0.3,-1 0,-1.101 0.3,-1 0.5,-0.899 0.8,-0.8 0.9,-0.601 1,-0.3 1,-0.099 1.1,0.199 0.9,0.5 0.9,0.7 0.6,0.8 0.4,1 0.1,1.101 m -198.4,0 -0.1,1 -0.4,1 -0.7,0.899 -0.8,0.7 -0.9,0.401 -1.1,0.2 -1.1,0 -1,-0.401 -0.9,-0.5 -0.7,-0.799 -0.5,-1 -0.3,-1 0,-1.101 0.3,-1 0.5,-0.899 0.7,-0.8 0.9,-0.601 1,-0.3 1.1,-0.099 1.1,0.199 0.9,0.5 0.8,0.7 0.7,0.8 0.4,1 0.1,1.101 m 0,-212.601 -0.1,1 -0.4,1 -0.7,0.9 -0.8,0.701 -0.9,0.399 -1.1,0.2 -1.1,0 -1,-0.399 -0.9,-0.5 -0.7,-0.801 -0.5,-1 -0.3,-1 0,-1.1 0.3,-1 0.5,-0.9 0.7,-0.8 0.9,-0.599 1,-0.3 1.1,-0.101 1.1,0.2 0.9,0.5 0.8,0.701 0.7,0.799 0.4,1 0.1,1.1 m 198.4,0 -0.1,1 -0.4,1 -0.6,0.9 -0.9,0.701 -0.9,0.399 -1.1,0.2 -1,0 -1,-0.399 -0.9,-0.5 -0.8,-0.801 -0.5,-1 -0.3,-1 0,-1.1 0.3,-1 0.5,-0.9 0.8,-0.8 0.9,-0.599 1,-0.3 1,-0.101 1.1,0.2 0.9,0.5 0.9,0.701 0.6,0.799 0.4,1 0.1,1.1 m -233,2.5 9.1,0 m -9.1,14.2 0,-14.2 m 9.1,14.2 -9.1,0 m 9.1,28.3 0,-28.3 m -9.1,28.3 9.1,0 m -9.1,14.2 0,-14.2 m 9.1,14.2 -9.1,0 m 9.1,28.401 0,-28.401 m -9.1,28.401 9.1,0 m -9.1,14.099 0,-14.099 m 9.1,14.099 -9.1,0 m 9.1,28.401 0,-28.401 m -9.1,28.401 9.1,0 m -9.1,14.2 0,-14.2 m 9.1,14.2 -9.1,0 m 9.1,28.3 0,-28.3 m -9.1,28.3 9.1,0 m -9.1,14.2 0,-14.2 m 9.1,14.2 -9.1,0 m 9.1,45.599 0,-45.599 m 28.3,45.599 -28.3,0 m 28.3,9.1 0,-9.1 m 14.2,9.1 -14.2,0 m 14.2,-9.1 0,9.1 m 28.3,-9.1 -28.3,0 m 28.3,9.1 0,-9.1 m 14.2,9.1 -14.2,0 m 14.2,-9.1 0,9.1 m 28.4,-9.1 -28.4,0 m 28.4,9.1 0,-9.1 m 14.1,9.1 -14.1,0 m 14.1,-9.1 0,9.1 m 28.4,-9.1 -28.4,0 m 28.4,9.1 0,-9.1 m 14.2,9.1 -14.2,0 m 14.2,-9.1 0,9.1 m 28.3,-9.1 -28.3,0 m 28.3,9.1 0,-9.1 m 14.2,9.1 -14.2,0 m 14.2,-9.1 0,9.1 m 28.3,-9.1 -28.3,0 m 28.3,-45.599 0,45.599 m 9.1,-45.599 -9.1,0 m 9.1,-14.2 0,14.2 m -9.1,-14.2 9.1,0 m -9.1,-28.3 0,28.3 m 9.1,-28.3 -9.1,0 m 9.1,-14.2 0,14.2 m -9.1,-14.2 9.1,0 M 22.4,63.2 l 0,28.401 m 9.1,-28.401 -9.1,0 m 9.1,-14.099 0,14.099 m -9.1,-14.099 9.1,0 M 22.4,20.7 l 0,28.401 m 9.1,-28.401 -9.1,0 m 9.1,-14.2 0,14.2 m -9.1,-14.2 9.1,0 m -9.1,-28.3 0,28.3 m 9.1,-28.3 -9.1,0 m 9.1,-14.2 0,14.2 m -9.1,-14.2 9.1,0 m -9.1,-34 0,34 m -240.9,-34 240.9,0 m -240.9,34 0,-34"
         id="path3017"
         style="fill:none;stroke:#0000ff;stroke-width:0.01;stroke-linecap:round;stroke-linejoin:round;stroke-miterlimit:10;stroke-opacity:1;stroke-dasharray:none" /></g><g
       transform="translate(92.7495,520)"
       id="g3019"><path
         d="m 0,0 0,-34.1 m 0,0 28.029,0 m 0,0 0,34.1 m 0,0 L 0,0 m 160.25,127.3 -6.5,0 m 0,0 0,-3.5 m 0,0 -7.1,0 m 0,0 0,-8.5 m 0,0 7.1,0 m 0,0 0,-3.5 m 0,0 6.5,0 m 0,0 0,3.5 m 0,0 14.201,0 m -241,0 14.199,0 m 0,0 0,-3.5 m 0,0 6.5,0 m 0,0 0,3.5 m 0,0 7.1,0 m 0,0 0,8.5 m 0,0 -7.1,0 m 0,0 0,3.5 m 0,0 -6.5,0 m 0,0 0,-3.5 m 0,0 -14.199,0 m 241,0 -14.201,0 m 0,0 0,3.5 m -141.7,-171.4 0,-9 m 0,0 70.801,0 m 0,0 0,9 m 0,0 -70.801,0 m 94.801,261.7 0.199,-1.2 0.401,-1 0.699,-0.9 1,-0.7 1.1,-0.4 1.101,-0.1 1.199,0.3 1,0.5 0.801,0.8 0.6,1 0.4,1.1 0,1.1 -0.4,1.2 -0.6,0.9 -0.801,0.8 -1,0.6 -1.199,0.2 -1.101,-0.1 -1.1,-0.4 -1,-0.6 -0.699,-0.9 -0.401,-1.1 -0.199,-1.1 m -127.601,-0.1 0.201,-1.2 0.5,-1.1 0.699,-0.9 0.9,-0.6 1.1,-0.4 1.201,-0.1 1.1,0.2 1,0.6 0.9,0.8 0.6,1 0.299,1.1 0,1.1 -0.299,1.1 -0.6,1 -0.9,0.8 -1,0.6 -1.1,0.2 -1.201,-0.1 -1.1,-0.4 -0.9,-0.6 -0.699,-0.9 -0.5,-1.1 -0.201,-1.1 m 127.701,-141.7 0.199,-1.1 0.4,-1.1 0.801,-0.9 0.899,-0.6 1.101,-0.4 1.199,-0.1 1.1,0.2 1,0.6 0.9,0.7 0.6,1 0.301,1.2 0,1.1 -0.301,1.1 -0.6,1 -0.9,0.8 -1,0.5 -1.1,0.3 -1.199,-0.1 -1.101,-0.4 -0.899,-0.7 -0.801,-0.9 -0.4,-1 -0.199,-1.2 m -127.5,-0.1 0.099,-1.1 0.5,-1.1 0.7,-0.9 1,-0.7 1,-0.3 1.201,-0.1 1.099,0.2 1.1,0.5 0.801,0.8 0.599,1 0.301,1.1 0,1.2 -0.301,1.1 -0.599,1 -0.801,0.8 -1.1,0.5 -1.099,0.3 -1.201,-0.1 -1,-0.4 -1,-0.7 -0.7,-0.9 -0.5,-1 -0.099,-1.2 m 9.799,-93.1 -0.1,0.5 -0.199,0.6 -0.201,0.5 -0.399,0.4 -0.4,0.3 -0.5,0.3 -0.5,0.2 -0.6,0 m 0,0 -25.5,0 m 0,0 -0.5,0 -0.601,-0.2 -0.5,-0.3 -0.399,-0.3 -0.301,-0.4 -0.3,-0.5 -0.2,-0.6 0,-0.5 m 0,-19.9 0,-0.5 0.2,-0.5 0.3,-0.5 0.301,-0.5 0.399,-0.3 0.5,-0.3 0.601,-0.1 0.5,-0.1 m 0,0 25.5,0 m 0,0 0.6,0.1 0.5,0.1 0.5,0.3 0.4,0.3 0.399,0.5 0.201,0.5 0.199,0.5 0.1,0.5 m 0,0 0,19.9 M 87.351,7 l 0,-40.3 m 0,0 45.899,0 m 0,0 0,40.3 m 0,0 -45.899,0 m -122.801,-24.4 0,-19.9 m -31.099,284.4 -9,0 m 0,0 0,-56.7 m 0,0 9,0 m 0,0 0,-66.6 m 0,-77.7 -9,0 m 0,0 0,-56.7 m 0,0 9,0 m 0,0 0,-56.7 m 0,0 241,0 m 0,0 0,56.7 m 0,0 9,0 m 0,0 0,56.7 m 0,0 -9,0 m 0,0 0,69.2 m 0,75.1 9,0 m 0,0 0,56.7 m 0,0 -9,0 m 0,0 0,56.7 m 0,0 -241,0 m 0,0 0,-56.7 m 0,-131.8 0,-69.2 m 241,77.7 0,66.6"
         id="path3021"
         style="fill:none;stroke:#0000ff;stroke-width:0.01;stroke-linecap:round;stroke-linejoin:round;stroke-miterlimit:10;stroke-opacity:1;stroke-dasharray:none" /></g><g
       transform="translate(917.7002,186.7002)"
       id="g3023"><path
         d="m 0,0 -6.5,0 m 0,0 0,-3.5 m 0,0 -7.101,0 m 0,-8.5 7.101,0 m 0,0 0,-3.601 m 0,0 6.5,0 m 0,0 0,3.601 m 0,0 14.2,0 m -241,0 14.199,0 m 0,0 0,-3.601 m 0,0 6.5,0 m 0,0 0,3.601 m 0,0 7.101,0 m 0,0 0,8.5 m 0,0 -7.101,0 m 0,0 0,3.5 m 0,0 -6.5,0 m 0,0 0,-3.5 m 0,0 -14.199,0 m 241,0 -14.2,0 m 0,0 0,3.5 m -198.101,-140.2 1.101,0.2 1,0.399 0.899,0.701 0.701,0.799 0.4,1.101 0.2,1.1 -0.2,1.1 -0.4,1 -0.701,0.9 -0.899,0.7 -1,0.4 -1.101,0.1 -1.099,-0.1 -1,-0.4 -0.901,-0.7 -0.699,-0.9 -0.4,-1 -0.1,-1.1 0.1,-1.1 0.4,-1.101 0.699,-0.799 0.901,-0.701 1,-0.399 1.099,-0.2 m 0,70.9 1.101,0.1 1,0.5 0.899,0.599 0.701,0.901 0.4,1 0.2,1.099 -0.2,1.101 -0.4,1.1 -0.701,0.799 -0.899,0.701 -1,0.4 -1.101,0.2 -1.099,-0.2 -1,-0.4 -0.901,-0.701 -0.699,-0.799 -0.4,-1.1 -0.1,-1.101 0.1,-1.099 0.4,-1 0.699,-0.901 0.901,-0.599 1,-0.5 1.099,-0.1 m 70.901,-70.9 1.099,0.2 1,0.399 0.901,0.701 0.7,0.799 0.399,1.101 0.101,1.1 -0.101,1.1 -0.399,1 -0.7,0.9 -0.901,0.7 -1,0.4 -1.099,0.1 -1.1,-0.1 -1.1,-0.4 -0.8,-0.7 -0.7,-0.9 -0.4,-1 -0.2,-1.1 0.2,-1.1 0.4,-1.101 0.7,-0.799 0.8,-0.701 1.1,-0.399 1.1,-0.2 m 0,70.9 1.099,0.1 1,0.5 0.901,0.599 0.7,0.901 0.399,1 0.101,1.099 -0.101,1.101 -0.399,1.1 -0.7,0.799 -0.901,0.701 -1,0.4 -1.099,0.2 -1.1,-0.2 -1.1,-0.4 -0.8,-0.701 -0.7,-0.799 -0.4,-1.1 -0.2,-1.101 0.2,-1.099 0.4,-1 0.7,-0.901 0.8,-0.599 1.1,-0.5 1.1,-0.1 m 37.599,-70.9 1.101,0.2 1.1,0.399 0.799,0.701 0.701,0.799 0.4,1.101 0.2,1.1 -0.2,1.1 -0.4,1 -0.701,0.9 -0.799,0.7 -1.1,0.4 -1.101,0.1 -1.099,-0.1 -1,-0.4 -0.901,-0.7 -0.699,-0.9 -0.4,-1 -0.1,-1.1 0.1,-1.1 0.4,-1.101 0.699,-0.799 0.901,-0.701 1,-0.399 1.099,-0.2 m 85.101,0 1.1,0.2 1,0.399 0.9,0.701 0.7,0.799 0.4,1.101 0.1,1.1 -0.1,1.1 -0.4,1 -0.7,0.9 -0.9,0.7 -1,0.4 -1.1,0.1 -1.101,-0.1 -1.099,-0.4 -0.8,-0.7 -0.7,-0.9 -0.401,-1 -0.199,-1.1 0.199,-1.1 0.401,-1.101 0.7,-0.799 0.8,-0.701 1.099,-0.399 1.101,-0.2 m -85.101,99.2 1.101,0.2 1.1,0.4 0.799,0.7 0.701,0.9 0.4,1 0.2,1.1 -0.2,1.099 -0.4,1 -0.701,0.901 -0.799,0.7 -1.1,0.399 -1.101,0.101 -1.099,-0.101 -1,-0.399 -0.901,-0.7 -0.699,-0.901 -0.4,-1 -0.1,-1.099 0.1,-1.1 0.4,-1 0.699,-0.9 0.901,-0.7 1,-0.4 1.099,-0.2 m 85.101,0 1.1,0.2 1,0.4 0.9,0.7 0.7,0.9 0.4,1 0.1,1.1 -0.1,1.099 -0.4,1 -0.7,0.901 -0.9,0.7 -1,0.399 -1.1,0.101 -1.101,-0.101 L -6.7,-33 l -0.8,-0.7 -0.7,-0.901 -0.401,-1 -0.199,-1.099 0.199,-1.1 0.401,-1 0.7,-0.9 0.8,-0.7 1.099,-0.4 1.101,-0.2 m -9.101,37.5 0,-8.5 m -222.199,99.7 9,0 m -9,-56.7 0,56.7 m 9,-56.7 -9,0 m 9,-34.5 0,34.5 m -9,-77.5 9,0 m -9,-56.7 0,56.7 m 9,-56.8 -9,0.1 m 9,-42.7 0,42.6 m 85.1,-42.6 -85.1,0 m 85.1,-8.701 0,8.701 m 70.9,-8.701 -70.9,0 m 70.9,8.701 0,-8.701 m 85,8.701 -85,0 m 85,42.6 0,-42.6 m 9.1,42.7 -9.1,-0.1 m 9.1,56.8 0,-56.7 m -9.1,56.7 9.1,0 m -9.1,34.5 0,-34.5 m 9.1,77.5 -9.1,0 m 9.1,56.7 0,-56.7 m -9.1,56.7 9.1,0 m -9.1,42.5 0,-42.5 m -53.9,42.5 53.9,0 m -53.9,9.1 0,-9.1 m -42.5,9.1 42.5,0 m -42.5,-9.1 0,9.1 m -48.2,-9.1 48.2,0 m -48.2,9.1 0,-9.1 m -42.5,9.1 42.5,0 m -42.5,-9.1 0,9.1 m -53.9,-9.1 53.9,0 m -53.9,-42.5 0,42.5 m 0,-176.7 0,34.5 m 241,43 0,-34.5"
         id="path3025"
         style="fill:none;stroke:#0000ff;stroke-width:0.01;stroke-linecap:round;stroke-linejoin:round;stroke-miterlimit:10;stroke-opacity:1;stroke-dasharray:none" /></g></g></svg>